<?xml version="1.0" encoding="utf-8"?>
<!-- Generator: Adobe Illustrator 25.0.0, SVG Export Plug-In . SVG Version: 6.00 Build 0)  -->
<svg version="1.1" id="Layer_1" xmlns="http://www.w3.org/2000/svg" xmlns:xlink="http://www.w3.org/1999/xlink" x="0px" y="0px"
	 viewBox="0 0 230 230" style="enable-background:new 0 0 230 230;" xml:space="preserve">
<style type="text/css">
	.st0{fill:#FFFFFF;}
</style>
<path class="st0" d="M217.3,161.3c6.4-14.2,10-29.9,10-46.5c0-62.1-50.4-112.5-112.5-112.5c-40.1,0-75.3,21-95.2,52.5l93.1-16.4v0.2
	l0.1,0l0.1,0.5v9.6L13.4,66.2c-7.1,14.7-11,31.2-11,48.6c0,62.1,50.4,112.5,112.5,112.5c40.9,0,76.8-21.9,96.4-54.6L136,186
	l-0.1-0.5v-4.8l0,0v-5.1L217.3,161.3z M111.2,156.4l-23,4v-30.3L66.1,134v30.3l-23,4.1V82.2l23-4.1v32.5l22.1-3.9V74.2l23-4.1V156.4
	z M134.6,153.3v-0.2h0.2v-0.7l-0.1,0V66.2l23-4.2v64l25.9-4.6v23.3L134.6,153.3z"/>
</svg>
