<?xml version="1.0" encoding="utf-8"?>
<!-- Generator: Adobe Illustrator 25.0.0, SVG Export Plug-In . SVG Version: 6.00 Build 0)  -->
<svg version="1.1" id="Layer_1" xmlns="http://www.w3.org/2000/svg" xmlns:xlink="http://www.w3.org/1999/xlink" x="0px" y="0px"
	 viewBox="0 0 230 230" style="enable-background:new 0 0 230 230;" xml:space="preserve">
<style type="text/css">
	.st0{fill:#2F2F2F;}
	.st1{fill:#E5E5E5;}
	.st2{fill:#FFFFFF;}
	.st3{fill:#EEEEEE;}
</style>
<g>
	<path class="st0" d="M136,186l-0.1-0.5v-4.8l0,0v-5.1l81.4-14.3c6.4-14.2,10-29.9,10-46.5c0-62.1-50.4-112.5-112.5-112.5
		c-40.1,0-75.3,21-95.2,52.5l93.1-16.4v0.2l0.1,0l0.1,0.5v9.6L13.4,66.2c-7.1,14.7-11,31.2-11,48.6c0,62.1,50.4,112.5,112.5,112.5
		c40.9,0,76.8-21.9,96.4-54.6L136,186z"/>
	<g>
		
			<rect x="57.4" y="109.1" transform="matrix(0.9848 -0.1736 0.1736 0.9848 -19.786 14.9815)" class="st1" width="36.7" height="23"/>
		<polygon class="st1" points="111.2,156.4 111.2,70.1 88.2,74.2 88.2,160.4 		"/>
		<polygon class="st2" points="66.1,164.3 66.1,78.1 43.1,82.2 43.1,168.4 		"/>
	</g>
	<polygon class="st3" points="183.6,121.4 134.8,130 134.8,153.1 134.6,153.1 134.6,153.3 183.6,144.7 	"/>
	<polygon class="st2" points="157.7,148.3 157.7,62 134.7,66.2 134.7,152.4 	"/>
</g>
</svg>
