<?xml version="1.0" encoding="utf-8"?>
<!-- Generator: Adobe Illustrator 25.0.0, SVG Export Plug-In . SVG Version: 6.00 Build 0)  -->
<svg version="1.1" id="Layer_1" xmlns="http://www.w3.org/2000/svg" xmlns:xlink="http://www.w3.org/1999/xlink" x="0px" y="0px"
	 viewBox="0 0 24 24" style="enable-background:new 0 0 24 24;" xml:space="preserve">
<style type="text/css">
	.st0{fill:#3F3F3F;}
</style>
<path class="st0" d="M20.6,1.2h-16c-0.6,0-1,0.4-1,1v16c0,0.6,0.4,1,1,1h16c0.6,0,1-0.4,1-1v-16C21.6,1.6,21.2,1.2,20.6,1.2z
	 M8.9,16.5H6.3V7.9H9L8.9,16.5L8.9,16.5z M7.6,6.8c-0.9,0-1.5-0.7-1.5-1.6s0.6-1.5,1.5-1.5s1.5,0.7,1.5,1.5S8.5,6.8,7.6,6.8z
	 M18.9,16.5h-2.7v-4.2c0-1,0-2.3-1.4-2.3s-1.6,1.1-1.6,2.2v4.2h-2.6V7.9h2.6v1.2l0,0c0.4-0.7,1.2-1.4,2.5-1.4c2.7,0,3.2,1.8,3.2,4.1
	L18.9,16.5L18.9,16.5z"/>
</svg>
