<?xml version="1.0" encoding="utf-8"?>
<!-- Generator: Adobe Illustrator 25.0.0, SVG Export Plug-In . SVG Version: 6.00 Build 0)  -->
<svg version="1.1" id="Layer_1" xmlns="http://www.w3.org/2000/svg" xmlns:xlink="http://www.w3.org/1999/xlink" x="0px" y="0px"
	 viewBox="0 0 24 24" style="enable-background:new 0 0 24 24;" xml:space="preserve">
<style type="text/css">
	.st0{fill:#FFFFFF;}
</style>
<path class="st0" d="M12,14c2.2,0,4-1.8,4-4s-1.8-4-4-4s-4,1.8-4,4S9.8,14,12,14z M12,8c1.1,0,2,0.9,2,2s-0.9,2-2,2s-2-0.9-2-2
	S10.9,8,12,8z"/>
<path class="st0" d="M11.4,21.8c0.2,0.1,0.4,0.2,0.6,0.2s0.4-0.1,0.6-0.2C12.9,21.6,20,16.4,20,10c0-4.4-3.6-8-8-8s-8,3.6-8,8
	C4,16.4,11.1,21.6,11.4,21.8z M12,4c3.3,0,6,2.7,6,6c0,4.4-4.4,8.4-6,9.7c-1.6-1.3-6-5.3-6-9.7C6,6.7,8.7,4,12,4z"/>
</svg>
