<?xml version="1.0" encoding="utf-8"?>
<!-- Generator: Adobe Illustrator 25.0.0, SVG Export Plug-In . SVG Version: 6.00 Build 0)  -->
<svg version="1.1" id="Layer_1" xmlns="http://www.w3.org/2000/svg" xmlns:xlink="http://www.w3.org/1999/xlink" x="0px" y="0px"
	 viewBox="0 0 230 230" style="enable-background:new 0 0 230 230;" xml:space="preserve">
<style type="text/css">
	.st0{fill:#FFFFFF;}
	.st1{fill:#2F2F2F;}
	.st2{fill:#E5E5E5;}
	.st3{fill:#EEEEEE;}
</style>
<rect x="57.3" y="108.9" transform="matrix(0.9848 -0.1736 0.1736 0.9848 -19.7549 14.9571)" class="st0" width="36.7" height="23"/>
<polygon class="st0" points="111.1,156.2 111.1,69.9 88.1,74 88.1,160.3 "/>
<polygon class="st0" points="66,164.2 66,77.9 43,82.1 43,168.2 "/>
<polygon class="st0" points="157.6,148.1 157.6,61.9 134.6,66 134.6,152.2 "/>
<polygon class="st0" points="183.4,121.2 134.7,129.8 134.7,152.9 134.5,152.9 134.5,153.2 183.4,144.5 "/>
<g>
	<path class="st1" d="M136.4,182.3v-5.1l81.4-14.3c6.4-14.2,10-29.9,10-46.5c0-62.1-50.4-112.5-112.5-112.5
		c-40.1,0-75.3,21-95.2,52.5L113.2,40v5.1l-96.4,17c-8.9,16.1-14,34.6-14,54.3c0,62.1,50.4,112.5,112.5,112.5
		c43.3,0,81-24.5,99.7-60.4L136.4,182.3z"/>
</g>
<g>
	
		<rect x="57.9" y="110.7" transform="matrix(0.9848 -0.1736 0.1736 0.9848 -20.0586 15.0896)" class="st2" width="36.7" height="23"/>
	<polygon class="st2" points="111.7,158 111.7,71.7 88.7,75.8 88.7,162 	"/>
	<polygon class="st0" points="66.6,165.9 66.6,79.7 43.6,83.8 43.6,170 	"/>
</g>
<g>
	<polygon class="st3" points="184.1,123 135.3,131.6 135.3,154.7 135.1,154.7 135.1,154.9 184.1,146.3 	"/>
	<polygon class="st0" points="158.2,149.9 158.2,63.6 135.2,67.8 135.2,154 	"/>
</g>
</svg>
